<?xml version="1.0" standalone="no"?>
<!DOCTYPE svg PUBLIC "-//W3C//DTD SVG 20010904//EN"
 "http://www.w3.org/TR/2001/REC-SVG-20010904/DTD/svg10.dtd">
<svg version="1.0" xmlns="http://www.w3.org/2000/svg"
 width="286.000000pt" height="286.000000pt" viewBox="0 0 286.000000 286.000000"
 preserveAspectRatio="xMidYMid meet">
<metadata>
Created by potrace 1.11, written by Peter Selinger 2001-2013
</metadata>
<g transform="translate(0.000000,286.000000) scale(0.100000,-0.100000)"
fill="#000000" stroke="none">
<path d="M0 2045 c0 -448 2 -815 5 -815 16 0 785 243 807 255 14 8 34 15 43
15 27 0 11 -25 -19 -28 -33 -4 -41 -22 -28 -61 9 -25 8 -31 -6 -35 -19 -6
-692 -188 -760 -206 l-42 -11 0 -65 c0 -49 3 -65 12 -61 7 2 195 61 418 131
223 69 418 130 434 136 22 7 32 6 38 -3 9 -14 0 -24 -27 -29 -16 -3 -19 -11
-18 -36 3 -37 57 -19 -474 -162 l-383 -104 0 -73 c0 -40 2 -73 5 -73 3 0 220
68 482 151 262 82 482 148 489 145 27 -10 14 -33 -25 -45 -38 -11 -39 -13 -31
-41 8 -27 6 -31 -17 -36 -14 -4 -222 -59 -462 -123 l-436 -117 -3 -377 -2
-377 1430 0 1430 0 0 1430 0 1430 -1430 0 -1430 0 0 -815z m2763 -223 c-49
-38 -78 -57 -85 -54 -5 1 -8 -2 -8 -7 0 -11 -80 -64 -87 -57 -3 2 9 12 26 21
36 18 41 28 9 16 -13 -4 -47 -11 -77 -15 -54 -7 -54 -7 -32 11 22 18 21 18
-61 16 -339 -10 -457 -16 -452 -25 4 -6 87 -8 223 -4 l216 6 -75 -26 c-57 -19
-104 -27 -193 -31 l-118 -6 -29 28 c-39 37 -52 24 -15 -15 23 -24 37 -30 71
-30 75 0 56 -16 -58 -50 l-112 -33 -66 71 c-65 70 -65 70 -110 65 -46 -5 -89
-7 -193 -11 -35 -1 -56 -6 -52 -12 4 -7 110 -8 110 0 0 0 40 2 88 4 l88 3 51
-57 c28 -32 50 -61 50 -66 -1 -4 -42 -20 -92 -35 l-90 -28 -77 79 c-41 44 -83
80 -91 80 -11 0 -1 -16 28 -47 25 -27 60 -64 78 -84 l34 -37 -68 -20 -67 -21
-18 22 c-10 12 -49 62 -86 110 l-68 88 -120 -6 c-66 -3 -137 -9 -157 -12 -38
-6 -38 -6 -38 -54 l0 -49 -40 -2 c-93 -4 -83 -12 -97 82 -6 47 -9 88 -5 91 9
8 1665 116 1792 117 92 1 94 1 73 -16z m-223 -147 c0 -8 -151 -105 -163 -105
-19 0 7 20 85 66 78 47 78 47 78 39z m-250 -19 c9 -12 2 -21 -45 -52 -44 -29
-58 -35 -68 -25 -9 10 -9 14 3 21 8 5 33 22 55 39 48 36 40 34 55 17z m-895
-73 c28 -36 62 -83 77 -103 l27 -37 -201 -61 c-111 -34 -203 -60 -204 -59 -1
1 -4 20 -6 42 l-3 39 71 21 70 20 -25 59 -25 58 -52 -5 c-56 -6 -64 0 -64 48
0 20 6 25 43 29 61 8 114 12 182 14 l60 2 50 -67z m932 -50 c-9 -9 -19 -14
-23 -11 -10 10 6 28 24 28 15 0 15 -1 -1 -17z m-1151 -29 c9 -20 12 -40 7 -44
-17 -14 -224 -63 -232 -54 -5 5 -13 32 -18 61 l-10 52 61 5 c34 4 77 8 96 9
82 8 80 9 96 -29z m1094 2 c0 -7 -23 -27 -51 -45 -58 -36 -59 -36 -59 -17 0 8
24 28 53 45 61 36 57 35 57 17z m-310 -35 c0 -16 -38 -51 -55 -51 -15 0 -2 40
18 53 29 21 37 21 37 -2z m156 -77 c-25 -18 -36 -18 -36 1 0 19 32 37 45 24 7
-7 4 -15 -9 -25z m-396 0 c0 -25 -23 -53 -43 -54 -12 0 3 63 17 72 20 13 26 9
26 -18z m-660 -38 l0 -44 -51 -17 c-28 -9 -52 -15 -54 -14 -1 2 -6 22 -9 45
l-7 41 53 15 c29 9 56 16 61 17 4 0 7 -19 7 -43z m990 10 c0 -12 -116 -96
-133 -96 -4 0 -7 9 -7 19 0 13 20 32 58 55 62 38 82 44 82 22z m-200 -36 c0
-25 -29 -38 -41 -19 -6 9 -3 18 8 27 24 17 33 15 33 -8z m-277 -37 c5 -45 -4
-73 -24 -73 -10 0 -12 103 -2 113 14 15 21 5 26 -40z m297 -37 c0 -13 -7 -26
-15 -30 -11 -4 -15 1 -15 18 0 12 3 26 7 29 13 14 23 6 23 -17z m-70 -40 c0
-23 -5 -27 -102 -90 l-28 -18 0 30 c0 26 8 35 58 65 69 43 72 43 72 13z m-610
-10 c0 -13 -80 -56 -104 -56 -8 0 -16 6 -19 13 -3 7 18 23 52 38 56 27 71 28
71 5z m443 -92 c4 -22 -4 -30 -54 -65 -32 -21 -60 -39 -63 -39 -4 0 -6 15 -6
33 0 29 6 35 58 64 31 18 58 32 58 33 1 0 4 -11 7 -26z m-403 -104 c0 -8 -46
-30 -60 -30 -19 0 -10 38 13 53 20 14 23 14 35 -1 6 -9 12 -19 12 -22z m240 1
c0 -17 -4 -33 -10 -36 -6 -4 -10 8 -10 29 0 20 5 36 10 36 6 0 10 -13 10 -29z
m-62 -43 c2 -18 -4 -31 -20 -42 -32 -23 -38 -20 -38 19 0 54 52 75 58 23z
m-96 -53 c4 -31 0 -38 -34 -60 -50 -33 -58 -32 -58 10 0 29 6 39 38 59 20 14
40 25 43 25 4 1 9 -15 11 -34z"/>
</g>
</svg>
